<mxfile host="app.diagrams.net" agent="Mozilla/5.0 (Windows NT 10.0; Win64; x64) AppleWebKit/537.36 (KHTML, like Gecko) Chrome/128.0.0.0 Safari/537.36" version="24.7.8">
  <diagram name="Page-1" id="sAG_o8f2YMsoG0rIi-mo">
    <mxGraphModel dx="1290" dy="574" grid="1" gridSize="10" guides="1" tooltips="1" connect="1" arrows="1" fold="1" page="1" pageScale="1" pageWidth="850" pageHeight="1100" math="0" shadow="0">
      <root>
        <mxCell id="0" />
        <mxCell id="1" parent="0" />
        <mxCell id="gjJ1NJOhNVe_CqYTKYcT-1" value="Читатель" style="rounded=1;arcSize=10;whiteSpace=wrap;html=1;align=center;" vertex="1" parent="1">
          <mxGeometry x="70" y="240" width="100" height="40" as="geometry" />
        </mxCell>
        <mxCell id="gjJ1NJOhNVe_CqYTKYcT-2" value="Книга" style="whiteSpace=wrap;html=1;align=center;" vertex="1" parent="1">
          <mxGeometry x="410" y="240" width="100" height="40" as="geometry" />
        </mxCell>
        <mxCell id="gjJ1NJOhNVe_CqYTKYcT-3" value="Журнал учета" style="whiteSpace=wrap;html=1;align=center;" vertex="1" parent="1">
          <mxGeometry x="410" y="480" width="100" height="40" as="geometry" />
        </mxCell>
        <mxCell id="gjJ1NJOhNVe_CqYTKYcT-4" value="Библиотекарь" style="whiteSpace=wrap;html=1;align=center;" vertex="1" parent="1">
          <mxGeometry x="70" y="480" width="100" height="40" as="geometry" />
        </mxCell>
        <mxCell id="gjJ1NJOhNVe_CqYTKYcT-5" value="Взять" style="shape=rhombus;perimeter=rhombusPerimeter;whiteSpace=wrap;html=1;align=center;" vertex="1" parent="1">
          <mxGeometry x="230" y="230" width="120" height="60" as="geometry" />
        </mxCell>
        <mxCell id="gjJ1NJOhNVe_CqYTKYcT-7" value="Управлять записью" style="shape=rhombus;perimeter=rhombusPerimeter;whiteSpace=wrap;html=1;align=center;" vertex="1" parent="1">
          <mxGeometry x="230" y="470" width="120" height="60" as="geometry" />
        </mxCell>
        <mxCell id="gjJ1NJOhNVe_CqYTKYcT-9" value="Регистрация" style="shape=rhombus;perimeter=rhombusPerimeter;whiteSpace=wrap;html=1;align=center;" vertex="1" parent="1">
          <mxGeometry x="60" y="350" width="120" height="60" as="geometry" />
        </mxCell>
        <mxCell id="gjJ1NJOhNVe_CqYTKYcT-10" value="" style="endArrow=none;html=1;rounded=0;exitX=0.5;exitY=1;exitDx=0;exitDy=0;entryX=0.5;entryY=0;entryDx=0;entryDy=0;" edge="1" parent="1" source="gjJ1NJOhNVe_CqYTKYcT-1" target="gjJ1NJOhNVe_CqYTKYcT-9">
          <mxGeometry relative="1" as="geometry">
            <mxPoint x="340" y="500" as="sourcePoint" />
            <mxPoint x="500" y="500" as="targetPoint" />
          </mxGeometry>
        </mxCell>
        <mxCell id="gjJ1NJOhNVe_CqYTKYcT-11" value="" style="endArrow=none;html=1;rounded=0;exitX=0.5;exitY=1;exitDx=0;exitDy=0;entryX=0.5;entryY=0;entryDx=0;entryDy=0;" edge="1" parent="1" source="gjJ1NJOhNVe_CqYTKYcT-9" target="gjJ1NJOhNVe_CqYTKYcT-4">
          <mxGeometry relative="1" as="geometry">
            <mxPoint x="220" y="390" as="sourcePoint" />
            <mxPoint x="380" y="390" as="targetPoint" />
          </mxGeometry>
        </mxCell>
        <mxCell id="gjJ1NJOhNVe_CqYTKYcT-13" value="" style="endArrow=none;html=1;rounded=0;exitX=0;exitY=0.5;exitDx=0;exitDy=0;entryX=1;entryY=0.5;entryDx=0;entryDy=0;" edge="1" parent="1" source="gjJ1NJOhNVe_CqYTKYcT-2" target="gjJ1NJOhNVe_CqYTKYcT-5">
          <mxGeometry relative="1" as="geometry">
            <mxPoint x="430" y="330" as="sourcePoint" />
            <mxPoint x="590" y="330" as="targetPoint" />
          </mxGeometry>
        </mxCell>
        <mxCell id="gjJ1NJOhNVe_CqYTKYcT-14" value="" style="endArrow=none;html=1;rounded=0;exitX=1;exitY=0.5;exitDx=0;exitDy=0;entryX=0;entryY=0.5;entryDx=0;entryDy=0;" edge="1" parent="1" source="gjJ1NJOhNVe_CqYTKYcT-1" target="gjJ1NJOhNVe_CqYTKYcT-5">
          <mxGeometry relative="1" as="geometry">
            <mxPoint x="280" y="350" as="sourcePoint" />
            <mxPoint x="440" y="350" as="targetPoint" />
          </mxGeometry>
        </mxCell>
        <mxCell id="gjJ1NJOhNVe_CqYTKYcT-15" value="" style="endArrow=none;html=1;rounded=0;exitX=1;exitY=0.5;exitDx=0;exitDy=0;entryX=0;entryY=0.5;entryDx=0;entryDy=0;" edge="1" parent="1" source="gjJ1NJOhNVe_CqYTKYcT-4" target="gjJ1NJOhNVe_CqYTKYcT-7">
          <mxGeometry relative="1" as="geometry">
            <mxPoint x="230" y="440" as="sourcePoint" />
            <mxPoint x="390" y="440" as="targetPoint" />
          </mxGeometry>
        </mxCell>
        <mxCell id="gjJ1NJOhNVe_CqYTKYcT-16" value="" style="endArrow=none;html=1;rounded=0;exitX=1;exitY=0.5;exitDx=0;exitDy=0;entryX=0;entryY=0.5;entryDx=0;entryDy=0;" edge="1" parent="1" source="gjJ1NJOhNVe_CqYTKYcT-7" target="gjJ1NJOhNVe_CqYTKYcT-3">
          <mxGeometry relative="1" as="geometry">
            <mxPoint x="450" y="420" as="sourcePoint" />
            <mxPoint x="610" y="420" as="targetPoint" />
          </mxGeometry>
        </mxCell>
        <mxCell id="gjJ1NJOhNVe_CqYTKYcT-17" value="N" style="text;strokeColor=none;fillColor=none;spacingLeft=4;spacingRight=4;overflow=hidden;rotatable=0;points=[[0,0.5],[1,0.5]];portConstraint=eastwest;fontSize=12;whiteSpace=wrap;html=1;" vertex="1" parent="1">
          <mxGeometry x="380" y="470" width="40" height="30" as="geometry" />
        </mxCell>
        <mxCell id="gjJ1NJOhNVe_CqYTKYcT-18" value="N" style="text;strokeColor=none;fillColor=none;spacingLeft=4;spacingRight=4;overflow=hidden;rotatable=0;points=[[0,0.5],[1,0.5]];portConstraint=eastwest;fontSize=12;whiteSpace=wrap;html=1;" vertex="1" parent="1">
          <mxGeometry x="180" y="470" width="40" height="30" as="geometry" />
        </mxCell>
        <mxCell id="gjJ1NJOhNVe_CqYTKYcT-19" value="N" style="text;strokeColor=none;fillColor=none;spacingLeft=4;spacingRight=4;overflow=hidden;rotatable=0;points=[[0,0.5],[1,0.5]];portConstraint=eastwest;fontSize=12;whiteSpace=wrap;html=1;" vertex="1" parent="1">
          <mxGeometry x="130" y="280" width="40" height="30" as="geometry" />
        </mxCell>
        <mxCell id="gjJ1NJOhNVe_CqYTKYcT-20" value="1" style="text;strokeColor=none;fillColor=none;spacingLeft=4;spacingRight=4;overflow=hidden;rotatable=0;points=[[0,0.5],[1,0.5]];portConstraint=eastwest;fontSize=12;whiteSpace=wrap;html=1;" vertex="1" parent="1">
          <mxGeometry x="130" y="450" width="40" height="30" as="geometry" />
        </mxCell>
        <mxCell id="gjJ1NJOhNVe_CqYTKYcT-21" value="N" style="text;strokeColor=none;fillColor=none;spacingLeft=4;spacingRight=4;overflow=hidden;rotatable=0;points=[[0,0.5],[1,0.5]];portConstraint=eastwest;fontSize=12;whiteSpace=wrap;html=1;" vertex="1" parent="1">
          <mxGeometry x="170" y="240" width="40" height="30" as="geometry" />
        </mxCell>
        <mxCell id="gjJ1NJOhNVe_CqYTKYcT-22" value="N" style="text;strokeColor=none;fillColor=none;spacingLeft=4;spacingRight=4;overflow=hidden;rotatable=0;points=[[0,0.5],[1,0.5]];portConstraint=eastwest;fontSize=12;whiteSpace=wrap;html=1;" vertex="1" parent="1">
          <mxGeometry x="390" y="240" width="40" height="30" as="geometry" />
        </mxCell>
        <mxCell id="gjJ1NJOhNVe_CqYTKYcT-23" value="id" style="ellipse;whiteSpace=wrap;html=1;align=center;fontStyle=4;" vertex="1" parent="1">
          <mxGeometry x="410" y="180" width="40" height="30" as="geometry" />
        </mxCell>
        <mxCell id="gjJ1NJOhNVe_CqYTKYcT-24" value="id" style="ellipse;whiteSpace=wrap;html=1;align=center;fontStyle=4;" vertex="1" parent="1">
          <mxGeometry x="70" y="180" width="40" height="30" as="geometry" />
        </mxCell>
        <mxCell id="gjJ1NJOhNVe_CqYTKYcT-25" value="id" style="ellipse;whiteSpace=wrap;html=1;align=center;fontStyle=4;" vertex="1" parent="1">
          <mxGeometry x="10" y="490" width="40" height="30" as="geometry" />
        </mxCell>
        <mxCell id="gjJ1NJOhNVe_CqYTKYcT-26" value="id_записи" style="ellipse;whiteSpace=wrap;html=1;align=center;fontStyle=4;" vertex="1" parent="1">
          <mxGeometry x="400" y="400" width="70" height="50" as="geometry" />
        </mxCell>
        <mxCell id="gjJ1NJOhNVe_CqYTKYcT-27" value="Название" style="ellipse;whiteSpace=wrap;html=1;align=center;" vertex="1" parent="1">
          <mxGeometry x="460" y="180" width="60" height="30" as="geometry" />
        </mxCell>
        <mxCell id="gjJ1NJOhNVe_CqYTKYcT-28" value="Автор" style="ellipse;whiteSpace=wrap;html=1;align=center;" vertex="1" parent="1">
          <mxGeometry x="530" y="210" width="50" height="30" as="geometry" />
        </mxCell>
        <mxCell id="gjJ1NJOhNVe_CqYTKYcT-30" value="ICBN" style="ellipse;whiteSpace=wrap;html=1;align=center;" vertex="1" parent="1">
          <mxGeometry x="530" y="250" width="50" height="30" as="geometry" />
        </mxCell>
        <mxCell id="gjJ1NJOhNVe_CqYTKYcT-31" value="Дата издания" style="ellipse;whiteSpace=wrap;html=1;align=center;" vertex="1" parent="1">
          <mxGeometry x="520" y="300" width="80" height="30" as="geometry" />
        </mxCell>
        <mxCell id="gjJ1NJOhNVe_CqYTKYcT-32" value="Жанр" style="ellipse;whiteSpace=wrap;html=1;align=center;" vertex="1" parent="1">
          <mxGeometry x="450" y="310" width="60" height="20" as="geometry" />
        </mxCell>
        <mxCell id="gjJ1NJOhNVe_CqYTKYcT-33" value="Количество экземпляров" style="ellipse;whiteSpace=wrap;html=1;align=center;" vertex="1" parent="1">
          <mxGeometry x="340" y="175" width="60" height="40" as="geometry" />
        </mxCell>
        <mxCell id="gjJ1NJOhNVe_CqYTKYcT-34" value="Статус" style="ellipse;whiteSpace=wrap;html=1;align=center;" vertex="1" parent="1">
          <mxGeometry x="380" y="305" width="50" height="30" as="geometry" />
        </mxCell>
        <mxCell id="gjJ1NJOhNVe_CqYTKYcT-35" value="" style="endArrow=none;html=1;rounded=0;exitX=0.5;exitY=1;exitDx=0;exitDy=0;entryX=0.5;entryY=0;entryDx=0;entryDy=0;" edge="1" parent="1" source="gjJ1NJOhNVe_CqYTKYcT-33" target="gjJ1NJOhNVe_CqYTKYcT-2">
          <mxGeometry relative="1" as="geometry">
            <mxPoint x="350" y="300" as="sourcePoint" />
            <mxPoint x="510" y="300" as="targetPoint" />
          </mxGeometry>
        </mxCell>
        <mxCell id="gjJ1NJOhNVe_CqYTKYcT-36" value="" style="endArrow=none;html=1;rounded=0;exitX=0.5;exitY=1;exitDx=0;exitDy=0;entryX=0.5;entryY=0;entryDx=0;entryDy=0;" edge="1" parent="1" source="gjJ1NJOhNVe_CqYTKYcT-23" target="gjJ1NJOhNVe_CqYTKYcT-2">
          <mxGeometry relative="1" as="geometry">
            <mxPoint x="380" y="225" as="sourcePoint" />
            <mxPoint x="470" y="250" as="targetPoint" />
          </mxGeometry>
        </mxCell>
        <mxCell id="gjJ1NJOhNVe_CqYTKYcT-37" value="" style="endArrow=none;html=1;rounded=0;exitX=0.5;exitY=1;exitDx=0;exitDy=0;entryX=0.5;entryY=0;entryDx=0;entryDy=0;" edge="1" parent="1" source="gjJ1NJOhNVe_CqYTKYcT-27" target="gjJ1NJOhNVe_CqYTKYcT-2">
          <mxGeometry relative="1" as="geometry">
            <mxPoint x="440" y="220" as="sourcePoint" />
            <mxPoint x="470" y="250" as="targetPoint" />
          </mxGeometry>
        </mxCell>
        <mxCell id="gjJ1NJOhNVe_CqYTKYcT-38" value="" style="endArrow=none;html=1;rounded=0;exitX=0;exitY=0.5;exitDx=0;exitDy=0;entryX=0.5;entryY=0;entryDx=0;entryDy=0;" edge="1" parent="1" source="gjJ1NJOhNVe_CqYTKYcT-28" target="gjJ1NJOhNVe_CqYTKYcT-2">
          <mxGeometry relative="1" as="geometry">
            <mxPoint x="500" y="220" as="sourcePoint" />
            <mxPoint x="470" y="250" as="targetPoint" />
          </mxGeometry>
        </mxCell>
        <mxCell id="gjJ1NJOhNVe_CqYTKYcT-39" value="" style="endArrow=none;html=1;rounded=0;exitX=0;exitY=0.5;exitDx=0;exitDy=0;" edge="1" parent="1" source="gjJ1NJOhNVe_CqYTKYcT-30">
          <mxGeometry relative="1" as="geometry">
            <mxPoint x="540" y="235" as="sourcePoint" />
            <mxPoint x="510" y="260" as="targetPoint" />
          </mxGeometry>
        </mxCell>
        <mxCell id="gjJ1NJOhNVe_CqYTKYcT-40" value="" style="endArrow=none;html=1;rounded=0;exitX=0.5;exitY=0;exitDx=0;exitDy=0;entryX=1;entryY=0.5;entryDx=0;entryDy=0;" edge="1" parent="1" source="gjJ1NJOhNVe_CqYTKYcT-31" target="gjJ1NJOhNVe_CqYTKYcT-2">
          <mxGeometry relative="1" as="geometry">
            <mxPoint x="540" y="275" as="sourcePoint" />
            <mxPoint x="520" y="270" as="targetPoint" />
          </mxGeometry>
        </mxCell>
        <mxCell id="gjJ1NJOhNVe_CqYTKYcT-41" value="" style="endArrow=none;html=1;rounded=0;exitX=0.5;exitY=0;exitDx=0;exitDy=0;entryX=0.5;entryY=1;entryDx=0;entryDy=0;" edge="1" parent="1" source="gjJ1NJOhNVe_CqYTKYcT-32" target="gjJ1NJOhNVe_CqYTKYcT-2">
          <mxGeometry relative="1" as="geometry">
            <mxPoint x="570" y="310" as="sourcePoint" />
            <mxPoint x="520" y="270" as="targetPoint" />
          </mxGeometry>
        </mxCell>
        <mxCell id="gjJ1NJOhNVe_CqYTKYcT-42" value="" style="endArrow=none;html=1;rounded=0;exitX=0.5;exitY=0;exitDx=0;exitDy=0;entryX=0.5;entryY=1;entryDx=0;entryDy=0;" edge="1" parent="1" source="gjJ1NJOhNVe_CqYTKYcT-34" target="gjJ1NJOhNVe_CqYTKYcT-2">
          <mxGeometry relative="1" as="geometry">
            <mxPoint x="490" y="320" as="sourcePoint" />
            <mxPoint x="470" y="290" as="targetPoint" />
          </mxGeometry>
        </mxCell>
        <mxCell id="gjJ1NJOhNVe_CqYTKYcT-43" value="ФИО" style="ellipse;whiteSpace=wrap;html=1;align=center;" vertex="1" parent="1">
          <mxGeometry x="120" y="180" width="50" height="35" as="geometry" />
        </mxCell>
        <mxCell id="gjJ1NJOhNVe_CqYTKYcT-44" value="Номер билета" style="ellipse;whiteSpace=wrap;html=1;align=center;" vertex="1" parent="1">
          <mxGeometry x="180" y="177.5" width="60" height="40" as="geometry" />
        </mxCell>
        <mxCell id="gjJ1NJOhNVe_CqYTKYcT-45" value="Адрес" style="ellipse;whiteSpace=wrap;html=1;align=center;" vertex="1" parent="1">
          <mxGeometry x="10" y="200" width="50" height="30" as="geometry" />
        </mxCell>
        <mxCell id="gjJ1NJOhNVe_CqYTKYcT-46" value="Телефон" style="ellipse;whiteSpace=wrap;html=1;align=center;" vertex="1" parent="1">
          <mxGeometry x="10" y="260" width="50" height="30" as="geometry" />
        </mxCell>
        <mxCell id="gjJ1NJOhNVe_CqYTKYcT-49" value="" style="endArrow=none;html=1;rounded=0;exitX=0.5;exitY=1;exitDx=0;exitDy=0;entryX=0.5;entryY=0;entryDx=0;entryDy=0;" edge="1" parent="1" source="gjJ1NJOhNVe_CqYTKYcT-44" target="gjJ1NJOhNVe_CqYTKYcT-1">
          <mxGeometry relative="1" as="geometry">
            <mxPoint x="380" y="225" as="sourcePoint" />
            <mxPoint x="470" y="250" as="targetPoint" />
          </mxGeometry>
        </mxCell>
        <mxCell id="gjJ1NJOhNVe_CqYTKYcT-50" value="" style="endArrow=none;html=1;rounded=0;exitX=0.5;exitY=1;exitDx=0;exitDy=0;" edge="1" parent="1" source="gjJ1NJOhNVe_CqYTKYcT-43">
          <mxGeometry relative="1" as="geometry">
            <mxPoint x="220" y="228" as="sourcePoint" />
            <mxPoint x="120" y="240" as="targetPoint" />
          </mxGeometry>
        </mxCell>
        <mxCell id="gjJ1NJOhNVe_CqYTKYcT-51" value="" style="endArrow=none;html=1;rounded=0;exitX=0.5;exitY=1;exitDx=0;exitDy=0;entryX=0.5;entryY=0;entryDx=0;entryDy=0;" edge="1" parent="1" source="gjJ1NJOhNVe_CqYTKYcT-24" target="gjJ1NJOhNVe_CqYTKYcT-1">
          <mxGeometry relative="1" as="geometry">
            <mxPoint x="155" y="225" as="sourcePoint" />
            <mxPoint x="130" y="250" as="targetPoint" />
          </mxGeometry>
        </mxCell>
        <mxCell id="gjJ1NJOhNVe_CqYTKYcT-52" value="" style="endArrow=none;html=1;rounded=0;exitX=1;exitY=0.5;exitDx=0;exitDy=0;" edge="1" parent="1" source="gjJ1NJOhNVe_CqYTKYcT-45">
          <mxGeometry relative="1" as="geometry">
            <mxPoint x="100" y="220" as="sourcePoint" />
            <mxPoint x="120" y="240" as="targetPoint" />
          </mxGeometry>
        </mxCell>
        <mxCell id="gjJ1NJOhNVe_CqYTKYcT-53" value="" style="endArrow=none;html=1;rounded=0;exitX=1;exitY=0.5;exitDx=0;exitDy=0;entryX=0;entryY=0.5;entryDx=0;entryDy=0;" edge="1" parent="1" source="gjJ1NJOhNVe_CqYTKYcT-46" target="gjJ1NJOhNVe_CqYTKYcT-1">
          <mxGeometry relative="1" as="geometry">
            <mxPoint x="70" y="225" as="sourcePoint" />
            <mxPoint x="130" y="250" as="targetPoint" />
          </mxGeometry>
        </mxCell>
        <mxCell id="gjJ1NJOhNVe_CqYTKYcT-54" value="ФИО" style="ellipse;whiteSpace=wrap;html=1;align=center;" vertex="1" parent="1">
          <mxGeometry x="20" y="550" width="60" height="30" as="geometry" />
        </mxCell>
        <mxCell id="gjJ1NJOhNVe_CqYTKYcT-55" value="Логин" style="ellipse;whiteSpace=wrap;html=1;align=center;" vertex="1" parent="1">
          <mxGeometry x="95" y="547.5" width="50" height="35" as="geometry" />
        </mxCell>
        <mxCell id="gjJ1NJOhNVe_CqYTKYcT-56" value="Пароль" style="ellipse;whiteSpace=wrap;html=1;align=center;" vertex="1" parent="1">
          <mxGeometry x="165" y="547.5" width="50" height="35" as="geometry" />
        </mxCell>
        <mxCell id="gjJ1NJOhNVe_CqYTKYcT-57" value="" style="endArrow=none;html=1;rounded=0;exitX=1;exitY=0.5;exitDx=0;exitDy=0;entryX=0;entryY=0.5;entryDx=0;entryDy=0;" edge="1" parent="1" source="gjJ1NJOhNVe_CqYTKYcT-25" target="gjJ1NJOhNVe_CqYTKYcT-4">
          <mxGeometry relative="1" as="geometry">
            <mxPoint x="130" y="420" as="sourcePoint" />
            <mxPoint x="130" y="490" as="targetPoint" />
          </mxGeometry>
        </mxCell>
        <mxCell id="gjJ1NJOhNVe_CqYTKYcT-58" value="" style="endArrow=none;html=1;rounded=0;exitX=0.5;exitY=0;exitDx=0;exitDy=0;entryX=0.5;entryY=1;entryDx=0;entryDy=0;" edge="1" parent="1" source="gjJ1NJOhNVe_CqYTKYcT-54" target="gjJ1NJOhNVe_CqYTKYcT-4">
          <mxGeometry relative="1" as="geometry">
            <mxPoint x="60" y="515" as="sourcePoint" />
            <mxPoint x="80" y="510" as="targetPoint" />
          </mxGeometry>
        </mxCell>
        <mxCell id="gjJ1NJOhNVe_CqYTKYcT-59" value="" style="endArrow=none;html=1;rounded=0;" edge="1" parent="1" source="gjJ1NJOhNVe_CqYTKYcT-55">
          <mxGeometry relative="1" as="geometry">
            <mxPoint x="60" y="560" as="sourcePoint" />
            <mxPoint x="120" y="520" as="targetPoint" />
          </mxGeometry>
        </mxCell>
        <mxCell id="gjJ1NJOhNVe_CqYTKYcT-60" value="" style="endArrow=none;html=1;rounded=0;entryX=0.5;entryY=1;entryDx=0;entryDy=0;exitX=0.5;exitY=0;exitDx=0;exitDy=0;" edge="1" parent="1" source="gjJ1NJOhNVe_CqYTKYcT-56" target="gjJ1NJOhNVe_CqYTKYcT-4">
          <mxGeometry relative="1" as="geometry">
            <mxPoint x="130" y="558" as="sourcePoint" />
            <mxPoint x="130" y="530" as="targetPoint" />
          </mxGeometry>
        </mxCell>
        <mxCell id="gjJ1NJOhNVe_CqYTKYcT-61" value="Дата выдачи" style="ellipse;whiteSpace=wrap;html=1;align=center;" vertex="1" parent="1">
          <mxGeometry x="385" y="545" width="80" height="35" as="geometry" />
        </mxCell>
        <mxCell id="gjJ1NJOhNVe_CqYTKYcT-62" value="Дата возврата" style="ellipse;whiteSpace=wrap;html=1;align=center;" vertex="1" parent="1">
          <mxGeometry x="480" y="542.5" width="100" height="40" as="geometry" />
        </mxCell>
        <mxCell id="gjJ1NJOhNVe_CqYTKYcT-63" value="&lt;span style=&quot;border-bottom: 1px dotted&quot;&gt;ID книги&lt;/span&gt;" style="ellipse;whiteSpace=wrap;html=1;align=center;" vertex="1" parent="1">
          <mxGeometry x="500" y="410" width="80" height="30" as="geometry" />
        </mxCell>
        <mxCell id="gjJ1NJOhNVe_CqYTKYcT-66" value="ID читателя" style="ellipse;whiteSpace=wrap;html=1;align=center;" vertex="1" parent="1">
          <mxGeometry x="540" y="480" width="80" height="30" as="geometry" />
        </mxCell>
        <mxCell id="gjJ1NJOhNVe_CqYTKYcT-67" value="" style="endArrow=none;html=1;rounded=0;exitX=0.5;exitY=1;exitDx=0;exitDy=0;entryX=0.5;entryY=0;entryDx=0;entryDy=0;" edge="1" parent="1" source="gjJ1NJOhNVe_CqYTKYcT-26" target="gjJ1NJOhNVe_CqYTKYcT-3">
          <mxGeometry relative="1" as="geometry">
            <mxPoint x="130" y="420" as="sourcePoint" />
            <mxPoint x="130" y="490" as="targetPoint" />
          </mxGeometry>
        </mxCell>
        <mxCell id="gjJ1NJOhNVe_CqYTKYcT-68" value="" style="endArrow=none;html=1;rounded=0;exitX=0.5;exitY=1;exitDx=0;exitDy=0;entryX=0.5;entryY=0;entryDx=0;entryDy=0;" edge="1" parent="1" source="gjJ1NJOhNVe_CqYTKYcT-63" target="gjJ1NJOhNVe_CqYTKYcT-3">
          <mxGeometry relative="1" as="geometry">
            <mxPoint x="445" y="460" as="sourcePoint" />
            <mxPoint x="470" y="490" as="targetPoint" />
          </mxGeometry>
        </mxCell>
        <mxCell id="gjJ1NJOhNVe_CqYTKYcT-69" value="" style="endArrow=none;html=1;rounded=0;exitX=0;exitY=0.5;exitDx=0;exitDy=0;entryX=1;entryY=0.5;entryDx=0;entryDy=0;" edge="1" parent="1" source="gjJ1NJOhNVe_CqYTKYcT-66" target="gjJ1NJOhNVe_CqYTKYcT-3">
          <mxGeometry relative="1" as="geometry">
            <mxPoint x="550" y="450" as="sourcePoint" />
            <mxPoint x="470" y="490" as="targetPoint" />
          </mxGeometry>
        </mxCell>
        <mxCell id="gjJ1NJOhNVe_CqYTKYcT-70" value="" style="endArrow=none;html=1;rounded=0;exitX=0.5;exitY=0;exitDx=0;exitDy=0;entryX=0.5;entryY=1;entryDx=0;entryDy=0;" edge="1" parent="1" source="gjJ1NJOhNVe_CqYTKYcT-62" target="gjJ1NJOhNVe_CqYTKYcT-3">
          <mxGeometry relative="1" as="geometry">
            <mxPoint x="550" y="505" as="sourcePoint" />
            <mxPoint x="520" y="510" as="targetPoint" />
          </mxGeometry>
        </mxCell>
        <mxCell id="gjJ1NJOhNVe_CqYTKYcT-71" value="" style="endArrow=none;html=1;rounded=0;exitX=0.5;exitY=0;exitDx=0;exitDy=0;entryX=0.5;entryY=1;entryDx=0;entryDy=0;" edge="1" parent="1" source="gjJ1NJOhNVe_CqYTKYcT-61" target="gjJ1NJOhNVe_CqYTKYcT-3">
          <mxGeometry relative="1" as="geometry">
            <mxPoint x="540" y="553" as="sourcePoint" />
            <mxPoint x="470" y="530" as="targetPoint" />
          </mxGeometry>
        </mxCell>
      </root>
    </mxGraphModel>
  </diagram>
</mxfile>
